# xmcd CD database file
#
# Track frame offsets:
#	150
#	15351
#	27291
#	60103
#	92047
#	111154
#	139875
#	188393
#	212458
#	238857
#	278852
#	303078
#	317140
#	333722
#
# Disc length: 4729 seconds
#
# Revision: 1
# Processed by: cddbd v1.5.2PL0 Copyright (c) Steve Scherf et al.
# Submitted via: CDex 1.51
#
DISCID=b512770e
DTITLE=Vignola: 20 anni di Jazz in' it - Vignola: 20 anni di Jazz in' it
DYEAR=2008
DGENRE=Jazz
TTITLE0=Carla Bley and Steve Swallow: Ida Lupino
TTITLE1=Bachué Café: To My Mother
TTITLE2=Steve Lacy and Mal Waldron: Reflections
TTITLE3=Paolo Fresu and Furio Di castri: Don't Open Here
TTITLE4=Trio Madeira Brasil and Gabriele Mirabassi: Choro Para O Tio
TTITLE5=Azzola-Galliano-Salis: Loro
TTITLE6=Enrico Rava and Stefano Bollani: Le tue mani
TTITLE7=Darko Jurkovic: Georgia On My Mind
TTITLE8=Antonello Salis: Strawberry Fields Forever
TTITLE9=Tangoseis and Paolo Fresu: Miserere Canyengue
TTITLE10=John Surman: Impro 1
TTITLE11=Trovesi-Maras-Petrin: Vignolatino
TTITLE12=Mirabassi Quartet: Valsa Brasileira
TTITLE13=Rita Marcotulli: Migulin
EXTD=YEAR: 2008
EXTT0=
EXTT1=
EXTT2=
EXTT3=
EXTT4=
EXTT5=
EXTT6=
EXTT7=
EXTT8=
EXTT9=
EXTT10=
EXTT11=
EXTT12=
EXTT13=
PLAYORDER=
